HIERARCHY
ROOT hip
{
  OFFSET 5.51535 103.731 -2.80141
  CHANNELS 6 Xposition Yposition Zposition Zrotation Xrotation Yrotation
  JOINT abdomen
  {
    OFFSET 0 -1.186 -1.5018
    CHANNELS 6 Xposition Yposition Zposition Zrotation Xrotation Yrotation
    JOINT abdomen2
    {
      OFFSET 0 9.964 0.2134
      CHANNELS 6 Xposition Yposition Zposition Zrotation Xrotation Yrotation
      JOINT chest
      {
        OFFSET 0 13.134 -3.2573
        CHANNELS 6 Xposition Yposition Zposition Zrotation Xrotation Yrotation
        JOINT neck
        {
          OFFSET 0 20.686 -1.6905
          CHANNELS 6 Xposition Yposition Zposition Zrotation Xrotation Yrotation
          JOINT head
          {
            OFFSET 0 7.23801 -0.1237
            CHANNELS 6 Xposition Yposition Zposition Zrotation Xrotation Yrotation
            End Site
            {
              OFFSET 0 0 0
            }
          }
        }
        JOINT lCollar
        {
          OFFSET 1.7069 20.075 5.0056
          CHANNELS 6 Xposition Yposition Zposition Zrotation Xrotation Yrotation
          JOINT lShldr
          {
            OFFSET 13.6458 -0.0470195 -4.849
            CHANNELS 6 Xposition Yposition Zposition Zrotation Xrotation Yrotation
            JOINT lForeArm
            {
              OFFSET 28.3255 -0.97589 2.2888
              CHANNELS 6 Xposition Yposition Zposition Zrotation Xrotation Yrotation
              JOINT lHand
              {
                OFFSET 22.1583 -0.529998 10.8316
                CHANNELS 6 Xposition Yposition Zposition Zrotation Xrotation Yrotation
                JOINT lThumb1
                {
                  OFFSET 0.786 0.111997 2.5817
                  CHANNELS 6 Xposition Yposition Zposition Zrotation Xrotation Yrotation
                  JOINT lThumb2
                  {
                    OFFSET 0.360097 -0.877999 4.2331
                    CHANNELS 6 Xposition Yposition Zposition Zrotation Xrotation Yrotation
                    JOINT lThumb2_End
                    {
                      OFFSET 1.8127 -1.21601 2.2227
                      CHANNELS 6 Xposition Yposition Zposition Zrotation Xrotation Yrotation
                      End Site
                      {
                        OFFSET 0.0180981 -0.012195 0.0222007
                      }
                    }
                  }
                }
                JOINT lCarpal1
                {
                  OFFSET 0.9571 1.114 1.7695
                  CHANNELS 6 Xposition Yposition Zposition Zrotation Xrotation Yrotation
                  JOINT lIndex1
                  {
                    OFFSET 4.12461 0.486992 4.1451
                    CHANNELS 6 Xposition Yposition Zposition Zrotation Xrotation Yrotation
                    JOINT lIndex2
                    {
                      OFFSET 3.4052 -1.45401 2.7682
                      CHANNELS 6 Xposition Yposition Zposition Zrotation Xrotation Yrotation
                      JOINT lIndex2_End
                      {
                        OFFSET 1.45309 -1.79499 1.2713
                        CHANNELS 6 Xposition Yposition Zposition Zrotation Xrotation Yrotation
                        End Site
                        {
                          OFFSET 0.0144979 -0.0179083 0.0126995
                        }
                      }
                    }
                  }
                  JOINT lMid1
                  {
                    OFFSET 5.6954 0.209987 2.1184
                    CHANNELS 6 Xposition Yposition Zposition Zrotation Xrotation Yrotation
                    JOINT lMid2
                    {
                      OFFSET 3.9766 -1.53999 2.3863
                      CHANNELS 6 Xposition Yposition Zposition Zrotation Xrotation Yrotation
                      JOINT lMid2_End
                      {
                        OFFSET 1.4042 -1.926 1.125
                        CHANNELS 6 Xposition Yposition Zposition Zrotation Xrotation Yrotation
                        End Site
                        {
                          OFFSET 0.013999 -0.0193044 0.011301
                        }
                      }
                    }
                  }
                }
                JOINT lCarpal2
                {
                  OFFSET 2.0956 0.66 -0.3894
                  CHANNELS 6 Xposition Yposition Zposition Zrotation Xrotation Yrotation
                  JOINT lRing1
                  {
                    OFFSET 5.0395 -0.090013 2.4971
                    CHANNELS 6 Xposition Yposition Zposition Zrotation Xrotation Yrotation
                    JOINT lRing2
                    {
                      OFFSET 3.7921 -1.55199 1.4806
                      CHANNELS 6 Xposition Yposition Zposition Zrotation Xrotation Yrotation
                      JOINT lRing2_End
                      {
                        OFFSET 1.4655 -1.808 0.9609
                        CHANNELS 6 Xposition Yposition Zposition Zrotation Xrotation Yrotation
                        End Site
                        {
                          OFFSET 0.0147015 -0.0181014 0.00959957
                        }
                      }
                    }
                  }
                  JOINT lPinky1
                  {
                    OFFSET 4.9141 -1.269 0.3591
                    CHANNELS 6 Xposition Yposition Zposition Zrotation Xrotation Yrotation
                    JOINT lPinky2
                    {
                      OFFSET 3.1477 -1.685 0.8462
                      CHANNELS 6 Xposition Yposition Zposition Zrotation Xrotation Yrotation
                      JOINT lPinky2_End
                      {
                        OFFSET 0.805498 -1.58501 0.795499
                        CHANNELS 6 Xposition Yposition Zposition Zrotation Xrotation Yrotation
                        End Site
                        {
                          OFFSET 0.00809703 -0.0157944 0.00799848
                        }
                      }
                    }
                  }
                }
              }
            }
          }
        }
        JOINT rCollar
        {
          OFFSET -1.7069 20.075 5.0056
          CHANNELS 6 Xposition Yposition Zposition Zrotation Xrotation Yrotation
          JOINT rShldr
          {
            OFFSET -13.6458 -0.0470107 -4.849
            CHANNELS 6 Xposition Yposition Zposition Zrotation Xrotation Yrotation
            JOINT rForeArm
            {
              OFFSET -28.3255 -0.975895 2.2888
              CHANNELS 6 Xposition Yposition Zposition Zrotation Xrotation Yrotation
              JOINT rHand
              {
                OFFSET -22.1583 -0.530007 10.8316
                CHANNELS 6 Xposition Yposition Zposition Zrotation Xrotation Yrotation
                JOINT rThumb1
                {
                  OFFSET -0.785997 0.112005 2.5817
                  CHANNELS 6 Xposition Yposition Zposition Zrotation Xrotation Yrotation
                  JOINT rThumb2
                  {
                    OFFSET -0.360106 -0.877994 4.2331
                    CHANNELS 6 Xposition Yposition Zposition Zrotation Xrotation Yrotation
                    JOINT rThumb2_End
                    {
                      OFFSET -1.8127 -1.216 2.2227
                      CHANNELS 6 Xposition Yposition Zposition Zrotation Xrotation Yrotation
                      End Site
                      {
                        OFFSET -0.0180972 -0.0121973 0.0222005
                      }
                    }
                  }
                }
                JOINT rCarpal1
                {
                  OFFSET -0.9571 1.114 1.7695
                  CHANNELS 6 Xposition Yposition Zposition Zrotation Xrotation Yrotation
                  JOINT rIndex1
                  {
                    OFFSET -4.1246 0.487011 4.1451
                    CHANNELS 6 Xposition Yposition Zposition Zrotation Xrotation Yrotation
                    JOINT rIndex2
                    {
                      OFFSET -3.4052 -1.45401 2.7682
                      CHANNELS 6 Xposition Yposition Zposition Zrotation Xrotation Yrotation
                      JOINT rIndex2_End
                      {
                        OFFSET -1.4531 -1.795 1.2713
                        CHANNELS 6 Xposition Yposition Zposition Zrotation Xrotation Yrotation
                        End Site
                        {
                          OFFSET -0.0145077 -0.0180048 0.0127017
                        }
                      }
                    }
                  }
                  JOINT rMid1
                  {
                    OFFSET -5.6954 0.210002 2.1184
                    CHANNELS 6 Xposition Yposition Zposition Zrotation Xrotation Yrotation
                    JOINT rMid2
                    {
                      OFFSET -3.9766 -1.54 2.3863
                      CHANNELS 6 Xposition Yposition Zposition Zrotation Xrotation Yrotation
                      JOINT rMid2_End
                      {
                        OFFSET -1.4042 -1.926 1.125
                        CHANNELS 6 Xposition Yposition Zposition Zrotation Xrotation Yrotation
                        End Site
                        {
                          OFFSET -0.0139948 -0.0192916 0.0112994
                        }
                      }
                    }
                  }
                }
                JOINT rCarpal2
                {
                  OFFSET -2.0956 0.66 -0.3894
                  CHANNELS 6 Xposition Yposition Zposition Zrotation Xrotation Yrotation
                  JOINT rRing1
                  {
                    OFFSET -5.03951 -0.0899879 2.4971
                    CHANNELS 6 Xposition Yposition Zposition Zrotation Xrotation Yrotation
                    JOINT rRing2
                    {
                      OFFSET -3.7921 -1.55201 1.4806
                      CHANNELS 6 Xposition Yposition Zposition Zrotation Xrotation Yrotation
                      JOINT rRing2_End
                      {
                        OFFSET -1.4655 -1.808 0.960901
                        CHANNELS 6 Xposition Yposition Zposition Zrotation Xrotation Yrotation
                        End Site
                        {
                          OFFSET -0.0146934 -0.0180999 0.00959832
                        }
                      }
                    }
                  }
                  JOINT rPinky1
                  {
                    OFFSET -4.91411 -1.26899 0.359202
                    CHANNELS 6 Xposition Yposition Zposition Zrotation Xrotation Yrotation
                    JOINT rPinky2
                    {
                      OFFSET -3.14769 -1.68501 0.846199
                      CHANNELS 6 Xposition Yposition Zposition Zrotation Xrotation Yrotation
                      JOINT rPinky2_End
                      {
                        OFFSET -0.805498 -1.585 0.7955
                        CHANNELS 6 Xposition Yposition Zposition Zrotation Xrotation Yrotation
                        End Site
                        {
                          OFFSET -0.00810035 -0.0158035 0.00800029
                        }
                      }
                    }
                  }
                }
              }
            }
          }
        }
      }
    }
  }
  JOINT lThigh
  {
    OFFSET 8.367 -8.2066 0.5982
    CHANNELS 6 Xposition Yposition Zposition Zrotation Xrotation Yrotation
    JOINT lShin
    {
      OFFSET 2.1923 -43.463 -0.4932
      CHANNELS 6 Xposition Yposition Zposition Zrotation Xrotation Yrotation
      JOINT lFoot
      {
        OFFSET 0.733301 -45.8593 -2.6451
        CHANNELS 6 Xposition Yposition Zposition Zrotation Xrotation Yrotation
        End Site
        {
          OFFSET 2.6618 -4.2699 12.3931
        }
      }
    }
  }
  JOINT rThigh
  {
    OFFSET -8.367 -8.2066 0.5982
    CHANNELS 6 Xposition Yposition Zposition Zrotation Xrotation Yrotation
    JOINT rShin
    {
      OFFSET -2.1923 -43.463 -0.4931
      CHANNELS 6 Xposition Yposition Zposition Zrotation Xrotation Yrotation
      JOINT rFoot
      {
        OFFSET -0.733299 -45.8593 -2.6451
        CHANNELS 6 Xposition Yposition Zposition Zrotation Xrotation Yrotation
        End Site
        {
          OFFSET -2.6618 -4.2699 12.3931
        }
      }
    }
  }
}
MOTION
Frames:	4
Frame Time:	0.0333333
-36.6877 150.357 -19.3789 -5.70156 -28.0471 27.2718 4.50882e-007 -1.186 -1.5018 -0.45879 4.91665 -4.44835 3.32238e-007 9.964 0.213401 -0.534761 9.85402 -8.90664 -5.52622e-007 13.134 -3.2573 -0.534761 9.85402 -8.90663 1.13712e-005 20.686 -1.6905 0.419508 8.27919 11.2857 7.52056e-006 7.238 -0.123699 12.1906 1.03822 16.5832 1.7069 20.075 5.0056 8.63757 -1.84049 -19.5369 13.6458 -0.0470075 -4.849 -50.0559 -1.52705 -14.6716 28.3255 -0.975891 2.28881 -35.4703 37.1754 -72.9649 22.1583 -0.529988 10.8316 -43.4296 -24.8859 -0.0583267 0.786003 0.111996 2.58171 29.0017 36.8211 -34.7961 0.360099 -0.877997 4.2331 -6.33702 -0.117384 -11.5742 1.8127 -1.21601 2.2227 6.48485 1.48417 12.0601 0.9571 1.114 1.7695 1.59028e-015 3.18055e-015 1.59028e-015 4.1246 0.486992 4.1451 -4.88729 4.5387 12.6178 3.4052 -1.454 2.7682 -36.3636 10.033 17.8992 1.4531 -1.79499 1.2713 -37.4308 10.1387 18.4809 5.69541 0.209988 2.1184 -1.58698 -0.577021 1.61796 3.9766 -1.53999 2.3863 -43.8284 12.176 22.7532 1.4042 -1.926 1.125 -9.0316 4.06869 4.022 2.0956 0.66 -0.3894 1.59028e-015 3.18055e-015 1.59028e-015 5.0395 -0.0900142 2.4971 -8.44085 -1.94813 5.79524 3.7921 -1.55199 1.48061 -14.2679 6.483 7.41446 1.4655 -1.808 0.960894 -15.7294 7.01807 8.23447 4.9141 -1.269 0.359101 10.4039 -12.5936 2.33178 3.1477 -1.685 0.846197 -18.2186 8.51743 9.60865 0.805495 -1.58501 0.795505 -8.80543 4.59363 4.39826 -1.7069 20.075 5.0056 0.636899 0.106759 -5.92518 -13.6458 -0.0470173 -4.849 50.2104 2.04478 43.8649 -28.3255 -0.975881 2.28881 67.2617 19.5431 90.5545 -22.1583 -0.530005 10.8316 -24.7051 0.235577 12.2706 -0.785997 0.112006 2.5817 -19.2124 49.9311 17.7822 -0.360111 -0.877991 4.2331 -0.518146 0.461473 -1.59087 -1.81269 -1.216 2.2227 -4.44358 5.0282 -15.268 -0.9571 1.114 1.7695 -3.18055e-015 0 9.54166e-015 -4.12461 0.487012 4.14511 -23.6228 3.39783 -15.5017 -3.4052 -1.45401 2.7682 39.498 10.0974 -9.2745 -1.4531 -1.795 1.2713 45.4781 10.9508 -11.16 -5.69541 0.210004 2.11841 -1.04225 5.48637 -10.0635 -3.9766 -1.54 2.3863 52.3088 13.53 -14.1043 -1.4042 -1.926 1.125 44.0034 12.3921 -11.1855 -2.0956 0.66 -0.3894 -3.18055e-015 0 9.54166e-015 -5.03951 -0.0899868 2.4971 16.4925 0.275064 -5.65888 -3.7921 -1.55201 1.4806 37.3339 11.9098 -10.7861 -1.4655 -1.808 0.960902 38.6322 12.1693 -11.2725 -4.91411 -1.26899 0.359205 24.6636 -0.263394 -2.07521 -3.14769 -1.68501 0.846194 30.529 11.3153 -8.19424 -0.8055 -1.58499 0.795505 30.4593 11.2958 -8.16999 8.36701 -8.2066 0.598202 5.99284 -51.0383 12.3102 2.19153 -43.4631 -0.492296 -179.394 73.023 -178.887 0.733293 -45.8593 -2.64509 0.921122 5.96123 -10.6444 -8.36701 -8.2066 0.598204 25.5412 -72.8056 -12.7027 -2.1923 -43.463 -0.493098 58.3753 72.6938 -54.4565 -0.733293 -45.8593 -2.6451 5.53216 2.41296 -10.6112 
-36.7338 150.357 -19.3891 -5.60346 -28.0415 27.5341 1.9697e-006 -1.18599 -1.5018 -0.469671 4.91861 -4.47899 -8.32671e-007 9.964 0.2134 -0.553756 9.85885 -8.96732 1.32506e-006 13.134 -3.2573 -0.553762 9.85884 -8.96732 5.84505e-007 20.686 -1.6905 0.420703 8.45867 11.2641 -1.21224e-006 7.238 -0.123697 12.1991 1.04512 16.5232 1.7069 20.075 5.0056 8.61762 -1.83891 -19.5186 13.6458 -0.047011 -4.849 -50.044 -1.56596 -14.6886 28.3255 -0.975895 2.2888 -35.4252 37.1097 -72.9481 22.1583 -0.529989 10.8316 -43.6331 -24.9037 -0.0714689 0.786003 0.111996 2.58171 29.0017 36.8211 -34.7961 0.360098 -0.877996 4.2331 -6.33702 -0.117394 -11.5742 1.8127 -1.21601 2.2227 6.48485 1.48417 12.0601 0.9571 1.114 1.7695 1.59028e-015 -4.77083e-015 3.57812e-015 4.1246 0.48699 4.14511 -4.8873 4.5387 12.6178 3.4052 -1.45401 2.76821 -36.3636 10.033 17.8992 1.4531 -1.79499 1.27129 -37.4308 10.1387 18.4809 5.6954 0.209986 2.1184 -1.58699 -0.577016 1.61797 3.9766 -1.53999 2.3863 -43.8284 12.176 22.7532 1.4042 -1.926 1.125 -9.03164 4.06871 4.02202 2.0956 0.66 -0.3894 1.59028e-015 -4.77083e-015 3.57812e-015 5.0395 -0.0900123 2.4971 -8.44087 -1.94814 5.79525 3.7921 -1.55199 1.4806 -14.2679 6.48302 7.41448 1.4655 -1.808 0.960907 -15.7293 7.01807 8.23446 4.9141 -1.269 0.359095 10.4038 -12.5936 2.33178 3.1477 -1.68501 0.846206 -18.2186 8.51743 9.60865 0.805496 -1.58501 0.795504 -8.80543 4.59365 4.39826 -1.7069 20.075 5.0056 0.641319 0.106321 -5.89984 -13.6458 -0.0470195 -4.849 50.2376 2.0519 43.8848 -28.3255 -0.975891 2.28881 67.1653 19.4388 90.5628 -22.1583 -0.530001 10.8316 -24.7131 0.182354 12.257 -0.785997 0.112006 2.5817 -19.2124 49.9311 17.7821 -0.360108 -0.877991 4.2331 -0.518157 0.461474 -1.59087 -1.81269 -1.216 2.2227 -4.44358 5.0282 -15.268 -0.9571 1.114 1.7695 -0 0 3.18055e-015 -4.1246 0.487014 4.1451 -23.6229 3.39783 -15.5017 -3.4052 -1.45401 2.7682 39.498 10.0974 -9.27449 -1.4531 -1.795 1.2713 45.4781 10.9508 -11.16 -5.6954 0.210004 2.1184 -1.04227 5.48636 -10.0635 -3.9766 -1.54 2.3863 52.3088 13.53 -14.1042 -1.4042 -1.926 1.125 44.0034 12.3921 -11.1855 -2.0956 0.66 -0.3894 -0 0 3.18055e-015 -5.03951 -0.0899872 2.49711 16.4925 0.27507 -5.65888 -3.7921 -1.55201 1.4806 37.3339 11.9098 -10.7861 -1.4655 -1.808 0.960901 38.6322 12.1693 -11.2725 -4.9141 -1.26899 0.359198 24.6636 -0.26336 -2.07521 -3.14769 -1.68501 0.846194 30.529 11.3153 -8.19423 -0.805501 -1.58499 0.795504 30.4593 11.2958 -8.16999 8.36701 -8.2066 0.598207 5.92948 -51.0834 12.234 2.19276 -43.463 -0.493723 -179.376 73.1933 -178.919 0.733278 -45.8593 -2.64511 0.835479 5.96905 -10.5577 -8.36701 -8.2066 0.598199 25.5009 -72.7761 -12.734 -2.1923 -43.463 -0.493116 58.1027 72.6561 -54.1867 -0.7333 -45.8593 -2.64511 5.58302 2.51544 -10.6164 
-36.7861 150.357 -19.3965 -5.49591 -28.0401 27.8248 -1.49931e-006 -1.18599 -1.5018 -0.476961 4.92261 -4.51508 -8.50985e-007 9.964 0.213401 -0.56499 9.86741 -9.03934 -2.02955e-006 13.134 -3.2573 -0.564988 9.86741 -9.03934 -1.49121e-005 20.6863 -1.69048 0.41281 8.60366 11.2363 1.00049e-005 7.23801 -0.123699 12.2526 1.01991 16.497 1.7069 20.075 5.0056 8.59896 -1.83784 -19.5059 13.6458 -0.0470057 -4.849 -50.0238 -1.58786 -14.6823 28.3255 -0.975891 2.2888 -35.3995 37.0167 -72.9489 22.1583 -0.529992 10.8316 -43.8384 -24.8885 -0.0710867 0.786003 0.111996 2.58171 29.0017 36.8211 -34.7961 0.360098 -0.877997 4.2331 -6.33702 -0.117391 -11.5742 1.8127 -1.21601 2.2227 6.48485 1.48416 12.0601 0.9571 1.114 1.7695 -4.77083e-015 0 7.95139e-016 4.1246 0.486994 4.1451 -4.8873 4.5387 12.6178 3.4052 -1.45401 2.76821 -36.3636 10.033 17.8992 1.4531 -1.79499 1.27129 -37.4308 10.1387 18.4809 5.6954 0.209986 2.11841 -1.587 -0.577041 1.61797 3.9766 -1.53999 2.3863 -43.8284 12.176 22.7532 1.4042 -1.926 1.125 -9.03162 4.06869 4.02201 2.0956 0.66 -0.3894 -4.77083e-015 0 7.95139e-016 5.0395 -0.0900134 2.4971 -8.44089 -1.94817 5.79525 3.7921 -1.55199 1.4806 -14.2679 6.483 7.41449 1.4655 -1.808 0.960903 -15.7293 7.01806 8.23445 4.9141 -1.269 0.359097 10.4038 -12.5936 2.33178 3.1477 -1.685 0.846194 -18.2186 8.51741 9.60865 0.805496 -1.58501 0.795503 -8.80544 4.59363 4.39827 -1.7069 20.075 5.0056 0.632468 0.105853 -5.88193 -13.6458 -0.0470185 -4.849 50.2435 2.0319 43.929 -28.3255 -0.975895 2.2888 66.9676 19.3011 90.5659 -22.1583 -0.530006 10.8316 -24.7 -0.00449802 12.2228 -0.785997 0.112005 2.5817 -19.2124 49.9311 17.7822 -0.360111 -0.87799 4.2331 -0.518154 0.461472 -1.59088 -1.8127 -1.216 2.2227 -4.44359 5.02821 -15.268 -0.9571 1.114 1.7695 6.36111e-015 0 -3.18055e-015 -4.12461 0.487013 4.14511 -23.6229 3.39784 -15.5017 -3.4052 -1.45401 2.7682 39.498 10.0974 -9.27449 -1.4531 -1.795 1.2713 45.4781 10.9508 -11.16 -5.6954 0.210002 2.1184 -1.04225 5.48636 -10.0635 -3.9766 -1.54 2.38631 52.3088 13.53 -14.1043 -1.4042 -1.926 1.125 44.0034 12.3921 -11.1855 -2.0956 0.66 -0.3894 6.36111e-015 0 -3.18055e-015 -5.03951 -0.0899872 2.49711 16.4925 0.275079 -5.65888 -3.79209 -1.55201 1.48059 37.3339 11.9097 -10.7861 -1.4655 -1.808 0.960904 38.6322 12.1693 -11.2725 -4.9141 -1.26899 0.3592 24.6636 -0.263342 -2.07521 -3.14769 -1.68501 0.846197 30.529 11.3153 -8.19423 -0.805496 -1.585 0.795495 30.4593 11.2958 -8.17 8.36701 -8.20659 0.598208 5.85961 -51.1339 12.1392 2.19257 -43.463 -0.493527 -179.379 73.2735 -178.907 0.733296 -45.8594 -2.64512 0.726678 6.11241 -10.5328 -8.36701 -8.2066 0.598203 25.2242 -72.7475 -13.0441 -2.19229 -43.463 -0.493114 57.7642 72.5968 -53.8187 -0.733293 -45.8593 -2.6451 5.52257 2.57594 -10.6019 
-36.8187 150.344 -19.4041 -5.4042 -28.0486 28.0142 2.32019e-006 -1.186 -1.5018 -0.480816 4.92644 -4.53516 -2.70613e-006 9.964 0.213401 -0.570609 9.87544 -9.07943 4.65545e-007 13.134 -3.2573 -0.570612 9.87543 -9.07944 -2.60243e-006 20.686 -1.6905 0.419913 8.70348 11.1962 1.16518e-005 7.238 -0.123696 12.2027 1.04416 16.4315 1.7069 20.075 5.0056 8.58309 -1.83757 -19.5032 13.6458 -0.0470148 -4.849 -50.0136 -1.57804 -14.6697 28.3255 -0.975894 2.2888 -35.3987 36.8982 -72.9701 22.1583 -0.529984 10.8316 -44.0001 -24.8558 -0.0418505 0.786002 0.111996 2.5817 29.0017 36.8212 -34.7961 0.360098 -0.877995 4.2331 -6.33703 -0.117402 -11.5742 1.8127 -1.21601 2.2227 6.48484 1.48415 12.0601 0.9571 1.114 1.7695 1.59028e-015 -1.59028e-015 2.78299e-015 4.1246 0.486991 4.14511 -4.8873 4.5387 12.6178 3.4052 -1.45401 2.7682 -36.3636 10.033 17.8992 1.4531 -1.79499 1.27129 -37.4308 10.1387 18.4809 5.6954 0.209987 2.1184 -1.58701 -0.57706 1.61797 3.9766 -1.53999 2.38629 -43.8284 12.176 22.7532 1.4042 -1.926 1.12499 -9.03161 4.0687 4.02203 2.0956 0.66 -0.3894 1.59028e-015 -1.59028e-015 2.78299e-015 5.0395 -0.0900114 2.49709 -8.44089 -1.94816 5.79524 3.7921 -1.55199 1.4806 -14.2679 6.48299 7.41449 1.4655 -1.808 0.960903 -15.7294 7.01808 8.23446 4.9141 -1.26901 0.359104 10.4038 -12.5936 2.33177 3.1477 -1.68501 0.846204 -18.2186 8.51743 9.60867 0.805498 -1.58501 0.795503 -8.80544 4.59363 4.39826 -1.7069 20.075 5.0056 0.607781 0.105707 -5.87122 -13.6458 -0.0470207 -4.849 50.2158 1.96646 43.9983 -28.3255 -0.975888 2.2888 66.636 19.1091 90.5817 -22.1583 -0.530001 10.8316 -24.634 -0.371695 12.1325 -0.785996 0.112005 2.5817 -19.2124 49.9311 17.7822 -0.360111 -0.877989 4.2331 -0.518153 0.461481 -1.59088 -1.8127 -1.216 2.2227 -4.44359 5.02823 -15.268 -0.9571 1.114 1.7695 3.18055e-015 6.36111e-015 9.54166e-015 -4.12461 0.487012 4.14511 -23.6228 3.39786 -15.5016 -3.4052 -1.45401 2.7682 39.498 10.0974 -9.27451 -1.4531 -1.795 1.2713 45.4781 10.9508 -11.16 -5.69541 0.21 2.11841 -1.04225 5.48638 -10.0635 -3.9766 -1.54 2.38631 52.3088 13.53 -14.1042 -1.4042 -1.926 1.125 44.0034 12.3922 -11.1855 -2.0956 0.66 -0.3894 3.18055e-015 6.36111e-015 9.54166e-015 -5.03951 -0.0899879 2.49711 16.4925 0.275084 -5.65889 -3.7921 -1.55201 1.48059 37.3339 11.9098 -10.7861 -1.4655 -1.808 0.960904 38.6322 12.1693 -11.2725 -4.91411 -1.26899 0.359201 24.6636 -0.263305 -2.07522 -3.1477 -1.68501 0.846198 30.529 11.3153 -8.19423 -0.805499 -1.585 0.795495 30.4593 11.2958 -8.16999 8.36701 -8.2066 0.5982 5.89914 -51.1786 12.1717 2.1903 -43.4631 -0.490928 -179.387 73.2644 -178.884 0.733301 -45.8593 -2.64512 0.534022 6.2884 -10.5318 -8.36701 -8.2066 0.598204 25.2098 -72.7371 -13.058 -2.19231 -43.463 -0.493106 57.4036 72.5408 -53.4499 -0.733314 -45.8593 -2.64512 5.52572 2.6656 -10.6883 
